<svg width="15" height="15" viewBox="0 0 700 700" fill="none" xmlns="http://www.w3.org/2000/svg">
<path fill-rule="evenodd" clip-rule="evenodd" d="M174.965 653.169C342.131 749.682 556.656 692.201 653.169 525.035C749.682 357.869 692.201 143.344 525.035 46.8308C357.869 -49.6824 143.344 7.79934 46.8308 174.965C-49.6824 342.131 7.79934 556.656 174.965 653.169ZM233.32 138.7C230.605 138.921 227.751 139.153 224.861 139.958C221.752 140.823 218.238 142.812 214.607 144.866C207.512 148.881 199.97 153.149 194.135 149.78C192.864 149.046 191.679 148.394 190.575 147.787L190.57 147.784L190.57 147.784C184.341 144.359 180.676 142.343 178.501 134.907C175.712 125.373 175.793 120.792 181.208 111.414C185.842 103.387 192.322 92.8294 200.323 89.8786C202.813 88.9601 205.004 87.8947 207.044 86.903C213.134 83.9416 217.873 81.6374 225.191 85.8626C227.706 87.3146 230.381 88.5576 233.002 89.7756C240.795 93.3969 248.111 96.7968 249.329 104.81C249.392 105.221 249.456 105.638 249.521 106.062L249.524 106.076C250.759 114.097 252.319 124.224 248.044 131.628C244.485 137.792 239.23 138.219 233.32 138.7ZM401.944 75.0035C381.277 80.8707 362.713 69.3774 363.028 62.595C363.344 55.8126 358.019 55.0604 352.638 58.1437C347.257 61.2291 332.101 62.5387 327.166 57.3682C322.232 52.1968 318.396 53.8522 317.709 71.2545C317.022 88.6563 298.163 112.592 289.617 116.171C281.071 119.749 279.06 123.231 278.969 137.108C278.922 144.114 272.853 155.955 267.466 166.467L267.466 166.467L267.465 166.467C264.2 172.837 261.186 178.719 259.913 182.741C252.25 181.569 236.011 194.012 233.671 198.064C232.737 199.683 234.827 200.654 238.094 202.173C243.663 204.762 252.654 208.942 255.908 220.632C259.662 234.111 248.618 232.881 234.778 231.339C229.577 230.76 223.98 230.137 218.625 230.234C208.346 230.421 203.519 239.64 198.807 248.64C194.534 256.802 190.356 264.782 182.291 265.678C174.353 266.56 169.708 269.768 166.458 272.014C162.764 274.565 160.872 275.872 157.996 271.107C154.731 265.7 157.692 253.961 160.766 241.777C162.784 233.776 164.85 225.583 165.234 218.865C166.204 201.915 158.387 203.238 151.647 214.911C148.522 220.324 144.96 222.555 141.413 224.777C137.31 227.348 133.228 229.905 129.87 237.359C126.551 244.728 129.961 251.605 133.556 258.853C136.74 265.274 140.068 271.987 138.991 279.59C138.991 279.59 129.127 287.513 119.87 282.168C114.159 278.872 115.262 284.69 116.691 292.226C117.578 296.907 118.591 302.25 118.175 306.483C117.666 311.657 120.324 312.683 123.912 314.069C127.984 315.642 133.253 317.676 136.445 326.759C139.689 335.988 142.97 340.698 145.605 344.478C147.847 347.697 149.621 350.243 150.504 354.331C151.525 359.056 160.598 360.187 169.815 361.335C177.939 362.348 186.173 363.374 189.102 366.888C192.49 370.954 192.026 374.511 191.542 378.222C191.132 381.356 190.709 384.6 192.579 388.352C194.622 392.449 191.492 399.397 188.362 406.345C185.233 413.293 182.103 420.241 184.145 424.339C185.825 427.709 193.65 428.704 202.607 429.842C215.427 431.471 230.566 433.395 233.324 443.004C235.567 450.825 235.049 460.625 234.655 468.077C234.227 476.178 233.945 481.504 237.517 478.5C244.374 472.731 277.32 485.915 284.412 491.955C288.766 495.663 331.639 490.181 348.977 484.883C352.012 489.231 361.592 494.547 369.857 499.133L369.858 499.133C375.144 502.066 379.892 504.701 382.045 506.593C385.388 509.531 383.693 510.928 381.316 512.886C378.439 515.256 374.565 518.449 377.412 526.19C382.613 540.328 378.368 553.467 360.114 569.654C350.623 578.07 343.045 577.958 335.897 577.852C329.297 577.753 323.064 577.661 316.029 584.29C301.374 598.101 292.175 582.21 305.418 563.131C311.805 553.928 307.879 551.594 301.181 547.614C293.993 543.341 283.612 537.172 279.36 518.577C272.458 488.389 266.491 513.789 261.44 535.29L261.439 535.292C260.48 539.376 259.554 543.319 258.66 546.714C253.063 567.981 234.432 561.678 237.135 545.422C239.839 529.166 229.508 485.34 227.251 508.536C224.995 531.732 190.623 514.114 185.94 491.366C181.257 468.618 145.921 452.671 143.476 464.622C142.543 469.18 137.534 474.626 131.914 480.734C122.802 490.64 112.084 502.291 114.544 514.733C116.903 526.659 122.924 528.171 128.922 529.678C133.039 530.712 137.145 531.743 140.047 536.138C143.061 540.703 141.172 542.039 138.938 543.619C135.888 545.776 132.195 548.389 139.461 560.298C145.226 569.746 158.485 575.113 170.881 580.13C185.552 586.069 199.012 591.517 197.407 602.662C194.444 623.222 142.146 601.937 125.443 592.293C115.452 586.525 110.704 575.815 105.752 564.645C102.425 557.142 99.0067 549.43 93.8445 542.87C83.7196 530.002 63.3777 487.103 55.1932 469.462C58.4136 471.271 62.3162 472.771 66.879 473.85C86.4758 478.483 96.3778 457.474 97.859 447.194C98.0851 445.625 98.2575 443.611 98.4482 441.382L98.4482 441.381C99.5071 429.003 101.131 410.015 115.665 424.067C132.816 440.651 140.153 404.798 129.753 376.522C124.488 362.209 115.548 361.181 107.645 360.273C99.9348 359.387 93.212 358.614 91.852 345.731C90.6101 333.97 91.5871 326.205 92.2694 320.783C93.1005 314.177 93.4944 311.046 88.908 308.398C85.4046 306.375 82.0922 308.773 79.2567 310.826C75.3322 313.667 72.3212 315.846 70.9817 304.73C68.675 285.58 49.1983 307.742 47.7165 318.023C47.7165 318.023 42.3088 350.535 44.8741 365.378C45.5198 369.114 47.4137 374.839 49.6381 381.562L49.6382 381.563C56.2537 401.56 65.7914 430.39 54.1022 441.975C45.244 450.755 44.4353 458.273 48.7999 464.037C44.0423 470.671 40.4772 495.259 104.434 582.391C186.71 694.48 329.567 700.679 381.214 693.193C391.344 691.725 395.474 688.649 399.732 685.479C405.748 680.998 412.02 676.328 435.839 675.733C476.513 674.718 481.215 639.571 464.184 649.783C447.152 659.994 425.179 651.762 426.66 641.482C427.398 636.36 434.787 631.208 441.754 626.351C448.772 621.458 455.362 616.863 454.299 612.896C453.387 609.492 447.396 610.592 441.219 611.726C433.055 613.224 424.567 614.782 427.057 606.076C431.432 590.785 495.182 565.231 481.939 584.311C468.696 603.391 513.934 598.33 542.21 587.929C570.486 577.528 572.554 543.088 563.685 546.876C554.817 550.665 531.173 541.468 534.584 527.847C536.226 521.283 542 522.793 548.7 524.545C555.904 526.429 564.178 528.593 569.541 521.304C579.891 507.235 581.182 485.71 573.02 492.133C564.858 498.556 550.978 499.451 545.261 493.923C542.416 491.172 544.201 486.132 546.398 479.933C548.615 473.675 551.251 466.234 549.962 458.776C548.607 450.937 547.089 449.836 545.192 448.46C543.497 447.231 541.499 445.782 539.045 439.111C533.845 424.973 499.792 416.448 492.689 426.822C485.584 437.198 475.562 431.412 462.458 419.391C449.353 407.371 437.558 423.946 438.487 430.051C439.417 436.154 428.585 451.059 419.717 454.847C416.498 456.222 414.011 455.82 411.695 455.445C407.63 454.787 404.088 454.214 398.027 463.483C390.817 474.51 370.3 476.581 358.844 477.738H358.844C355.278 478.098 352.59 478.369 351.455 478.794C348.126 478.171 342.978 477.693 335.404 477.438C329.638 477.244 335.808 473.208 343.415 468.232C352.471 462.308 363.564 455.052 358.99 451.355C353.643 447.03 339.743 446.413 329.303 445.95H329.303C323.317 445.684 318.469 445.469 317.023 444.634C315.445 443.724 316.834 439.606 318.68 434.134C321.478 425.84 325.326 414.432 321.489 406.356C315.122 392.953 299.84 413.313 306.452 417.13C313.064 420.948 300.547 448.74 289.839 458.123C279.131 467.506 262.302 453.897 253.651 435.284C248.641 424.503 257.464 425.625 265.146 426.602C270.726 427.312 275.705 427.945 274.34 423.883C273.471 421.296 272.482 418.919 271.563 416.712L271.563 416.712C269.053 410.683 267.073 405.928 269.54 401.655C272.909 395.819 270.392 378.8 253.316 374.779C238.879 371.378 239.407 352.975 239.773 340.231L239.773 340.23C239.84 337.902 239.902 335.763 239.865 333.939C239.755 328.43 247.284 330.295 256.606 332.604C267.268 335.244 280.276 338.466 286.887 331.904C292.529 326.303 296.228 318.37 299.764 310.786C303.995 301.713 307.992 293.139 314.806 289.655C327.315 283.259 345.586 303.535 348.348 310.968C351.111 318.399 366.756 294.357 369.41 274.488C371.003 262.564 378.949 262.71 386.143 262.841C390.297 262.917 394.199 262.989 396.483 260.729C403.687 260.034 415.68 257.5 425.051 250.803C438.365 241.286 442.342 248.894 443.831 251.742C444.463 252.95 444.647 253.302 444.906 251.131C445.326 247.607 457.927 242.798 471.344 237.676C485.696 232.198 500.982 226.364 503.292 221.366C505.849 215.833 501.778 212.307 497.676 208.756C494.611 206.102 491.529 203.433 491.186 199.901C490.722 195.112 494.916 192.637 498.313 190.632C500.773 189.18 502.816 187.975 502.371 186.315C501.312 182.363 477.118 189.551 472.684 191.445C470.986 192.171 469.982 190.848 468.876 189.394C467.093 187.048 465.049 184.357 459.416 189.353C450.288 197.446 442.608 203.034 428.211 212.539C413.815 222.045 423.708 229.983 430.39 233.841C437.071 237.698 397.437 259.54 397.437 259.54C401.102 253.192 391.995 249.698 383.685 246.51C380.534 245.302 377.498 244.137 375.316 242.877C372.594 241.305 362.34 240.195 350.544 238.917C327.959 236.471 299.719 233.413 307.858 225.332C320.25 213.032 305.105 196.505 297.533 188.242C293.049 183.349 283.669 183.774 275.372 184.15C273.631 184.229 271.938 184.306 270.348 184.331C278.234 179.392 289.202 173.253 302.434 186.253C316.031 199.613 337.83 193.533 346.022 184.334C351.734 177.919 359.71 183.346 368.087 189.045C371.724 191.52 375.437 194.046 379.073 195.677C391.083 201.063 411.133 170.078 408.358 166.153C405.583 162.23 404.615 153.932 406.085 150.137C407.556 146.343 429.751 155.289 432.936 160.996C436.12 166.704 449.825 175.391 452.747 161.599C454.047 155.461 456.861 150.656 459.413 146.297C462.595 140.863 465.371 136.122 464.306 130.355C463.508 126.032 461.764 124.643 459.644 122.955C456.668 120.583 452.951 117.623 450.079 105.115C445.161 83.7041 422.611 69.1363 401.944 75.0035ZM326.472 630.944H326.471C313.711 630.771 298.535 630.566 290.644 638.112C287.632 640.994 275.801 632.618 286.014 630.987C290.89 630.209 293.673 627.409 296.309 624.756C299.196 621.851 301.907 619.124 306.998 619.419C316.739 619.985 354.913 625.909 344.226 629.736C340.328 631.131 333.798 631.043 326.472 630.944ZM477.141 520.295C490.779 519.817 489.668 527.527 470.437 534.798C470.437 534.798 463.502 520.772 477.141 520.295ZM405.383 517.284C405.611 523.794 409.891 529.218 413.947 534.357C418.387 539.985 422.557 545.27 420.842 551.264C417.562 562.733 398.175 604.991 393.939 589.183C392.394 583.417 394.081 575.517 395.973 566.654C399.27 551.217 403.19 532.858 391.745 517.761C387.376 511.997 404.906 503.645 405.383 517.284ZM231.388 351.883C227.877 365.07 220.823 361.764 219.463 341.249C219.463 341.249 234.9 338.695 231.388 351.883ZM303.269 46.4561C306.263 45.6733 307.88 45.2505 306.443 53.1208C303.868 67.2237 278.416 88.1634 277.615 79.9064C276.815 71.6488 279.872 56.7101 283.471 54.3342C287.07 51.958 277.659 43.1841 277.659 43.1841C286.541 37.7647 287.06 38.2501 291.749 42.6335C292.506 43.341 293.371 44.15 294.398 45.0521C297.663 47.9217 300.897 47.076 303.269 46.4561Z" fill="#F8F8F8"/>
</svg>
