<svg width="740" height="496" viewBox="0 0 740 496" fill="none" xmlns="http://www.w3.org/2000/svg">
<path fill-rule="evenodd" clip-rule="evenodd" d="M468.172 428.175C482.943 439.017 499.632 446.023 518.674 446.023C631.443 446.023 714.999 370.867 736.333 257.231C761.608 122.78 652.754 0 515.949 0H224.051C87.2458 0 -21.6092 122.78 3.66637 257.231C25.0009 370.867 108.555 446.023 221.326 446.023C240.372 446.023 257.062 439.018 271.833 428.179C284.903 435.264 296.477 446.838 308.051 458.412C326.636 476.997 345.22 495.581 369.999 495.581C394.778 495.581 413.363 476.997 431.947 458.412C443.522 446.837 455.099 435.26 468.172 428.175ZM522.233 395.902C496.438 395.902 469.873 354.669 450.472 324.538C444.872 315.865 439.644 307.786 434.737 300.899C420.663 281.075 397.792 269.255 373.558 269.255C349.299 269.255 326.452 281.075 312.378 300.848C307.448 307.811 302.219 315.865 296.643 324.562L296.568 324.679C277.173 354.776 250.67 395.902 224.883 395.902C137.859 395.902 73.1113 339.033 55.9147 247.524C46.8705 199.428 59.5575 151.629 91.6459 112.949C125.371 72.3112 174.928 48.9941 227.61 48.9941H519.506C572.187 48.9941 621.745 72.3112 655.444 112.949C687.533 151.629 700.245 199.428 691.175 247.524C674.004 339.058 609.256 395.902 522.233 395.902ZM296.34 203.601C291.206 214.973 279.768 222.887 266.48 222.887C248.396 222.887 233.734 208.225 233.734 190.141C233.734 176.853 241.648 165.414 253.02 160.28C246.923 158.404 240.446 157.395 233.734 157.395C197.564 157.395 168.242 186.716 168.242 222.887C168.242 259.056 197.564 288.378 233.734 288.378C269.905 288.378 299.227 259.056 299.227 222.887C299.227 216.174 298.216 209.698 296.34 203.601ZM559.442 203.601C554.308 214.971 542.868 222.887 529.582 222.887C511.496 222.887 496.836 208.225 496.836 190.141C496.836 176.853 504.75 165.414 516.122 160.28C510.024 158.404 503.548 157.395 496.836 157.395C460.665 157.395 431.344 186.716 431.344 222.887C431.344 259.056 460.665 288.378 496.836 288.378C533.005 288.378 562.327 259.056 562.327 222.887C562.327 216.174 561.318 209.698 559.442 203.601Z" fill="#F8F8F8"/>
</svg>
